<svg xmlns="http://www.w3.org/2000/svg" width="840" height="372" viewBox="0 0 840 372" role="img" aria-label="Accuracy by category and question type"><defs><linearGradient id="p" x1="0" y1="0" x2="1" y2="1"><stop offset="0" stop-color="#E9EDFF"/><stop offset=".55" stop-color="#F6F7FD"/><stop offset="1" stop-color="#E4E1FB"/></linearGradient><linearGradient id="g" x1="0" y1="0" x2="1" y2="1"><stop offset="0" stop-color="#3E61FF"/><stop offset="1" stop-color="#2A3FBF"/></linearGradient></defs><style>text{font-family:-apple-system, BlinkMacSystemFont, "Segoe UI", Helvetica, Arial, sans-serif}</style><rect width="840" height="372" rx="20" fill="url(#p)"/><text x="24" y="38" style="font-family:ui-monospace, SFMono-Regular, Menlo, Consolas, monospace;font-size:12px;letter-spacing:.14em;fill:#3E61FF">ACCURACY BY QUESTION TYPE</text><rect x="26.0" y="62" width="384.0" height="292" rx="14" fill="#2A3FBF" opacity=".07"/><rect x="24.0" y="56" width="384.0" height="292" rx="14" fill="#FFFFFF"/><text x="44.0" y="90" text-anchor="start" style="font-size:15px;font-weight:700;fill:#12162B">LoCoMo</text><text x="388.0" y="90" text-anchor="end" style="font-size:15px;font-weight:700;fill:#3E61FF">93.1%</text><text x="44.0" y="126.0" text-anchor="start" style="font-size:13px;font-weight:400;fill:#5B6280">single_hop</text><text x="388.0" y="126.0" text-anchor="end" style="font-size:13px;font-weight:600;fill:#12162B">94.6%</text><rect x="44.0" y="134.0" width="344.0" height="8" rx="4" fill="#E3E8FF"/><rect x="44.0" y="134.0" width="325.4" height="8" rx="4" fill="#3E61FF"/><text x="44.0" y="180.0" text-anchor="start" style="font-size:13px;font-weight:400;fill:#5B6280">multi_hop</text><text x="388.0" y="180.0" text-anchor="end" style="font-size:13px;font-weight:600;fill:#12162B">93.6%</text><rect x="44.0" y="188.0" width="344.0" height="8" rx="4" fill="#E3E8FF"/><rect x="44.0" y="188.0" width="322.0" height="8" rx="4" fill="#3E61FF"/><text x="44.0" y="234.0" text-anchor="start" style="font-size:13px;font-weight:400;fill:#5B6280">temporal</text><text x="388.0" y="234.0" text-anchor="end" style="font-size:13px;font-weight:600;fill:#12162B">91.6%</text><rect x="44.0" y="242.0" width="344.0" height="8" rx="4" fill="#E3E8FF"/><rect x="44.0" y="242.0" width="315.1" height="8" rx="4" fill="#3E61FF"/><text x="44.0" y="288.0" text-anchor="start" style="font-size:13px;font-weight:400;fill:#5B6280">open_domain</text><text x="388.0" y="288.0" text-anchor="end" style="font-size:13px;font-weight:600;fill:#12162B">83.3%</text><rect x="44.0" y="296.0" width="344.0" height="8" rx="4" fill="#E3E8FF"/><rect x="44.0" y="296.0" width="286.6" height="8" rx="4" fill="#3E61FF"/><rect x="434.0" y="62" width="384.0" height="292" rx="14" fill="#2A3FBF" opacity=".07"/><rect x="432.0" y="56" width="384.0" height="292" rx="14" fill="#FFFFFF"/><text x="452.0" y="90" text-anchor="start" style="font-size:15px;font-weight:700;fill:#12162B">LongMemEval_S</text><text x="796.0" y="90" text-anchor="end" style="font-size:15px;font-weight:700;fill:#3E61FF">92.6%</text><text x="452.0" y="126.0" text-anchor="start" style="font-size:13px;font-weight:400;fill:#5B6280">single-session-preference</text><text x="796.0" y="126.0" text-anchor="end" style="font-size:13px;font-weight:600;fill:#12162B">100.0%</text><rect x="452.0" y="134.0" width="344.0" height="8" rx="4" fill="#E3E8FF"/><rect x="452.0" y="134.0" width="344.0" height="8" rx="4" fill="#3E61FF"/><text x="452.0" y="162.0" text-anchor="start" style="font-size:13px;font-weight:400;fill:#5B6280">single-session-user</text><text x="796.0" y="162.0" text-anchor="end" style="font-size:13px;font-weight:600;fill:#12162B">98.6%</text><rect x="452.0" y="170.0" width="344.0" height="8" rx="4" fill="#E3E8FF"/><rect x="452.0" y="170.0" width="339.2" height="8" rx="4" fill="#3E61FF"/><text x="452.0" y="198.0" text-anchor="start" style="font-size:13px;font-weight:400;fill:#5B6280">knowledge-update</text><text x="796.0" y="198.0" text-anchor="end" style="font-size:13px;font-weight:600;fill:#12162B">97.4%</text><rect x="452.0" y="206.0" width="344.0" height="8" rx="4" fill="#E3E8FF"/><rect x="452.0" y="206.0" width="335.1" height="8" rx="4" fill="#3E61FF"/><text x="452.0" y="234.0" text-anchor="start" style="font-size:13px;font-weight:400;fill:#5B6280">temporal-reasoning</text><text x="796.0" y="234.0" text-anchor="end" style="font-size:13px;font-weight:600;fill:#12162B">92.5%</text><rect x="452.0" y="242.0" width="344.0" height="8" rx="4" fill="#E3E8FF"/><rect x="452.0" y="242.0" width="318.2" height="8" rx="4" fill="#3E61FF"/><text x="452.0" y="270.0" text-anchor="start" style="font-size:13px;font-weight:400;fill:#5B6280">multi-session</text><text x="796.0" y="270.0" text-anchor="end" style="font-size:13px;font-weight:600;fill:#12162B">88.0%</text><rect x="452.0" y="278.0" width="344.0" height="8" rx="4" fill="#E3E8FF"/><rect x="452.0" y="278.0" width="302.7" height="8" rx="4" fill="#3E61FF"/><text x="452.0" y="306.0" text-anchor="start" style="font-size:13px;font-weight:400;fill:#5B6280">single-session-assistant</text><text x="796.0" y="306.0" text-anchor="end" style="font-size:13px;font-weight:600;fill:#12162B">85.7%</text><rect x="452.0" y="314.0" width="344.0" height="8" rx="4" fill="#E3E8FF"/><rect x="452.0" y="314.0" width="294.8" height="8" rx="4" fill="#3E61FF"/></svg>
