<svg xmlns="http://www.w3.org/2000/svg" width="840" height="192" viewBox="0 0 840 192" role="img" aria-label="Shared loaders, competing systems, shared judges"><style>text{font-family:-apple-system, BlinkMacSystemFont, "Segoe UI", Helvetica, Arial, sans-serif;fill:#8B949E} .t{font-size:15px;font-weight:600;fill:#3E61FF} .s{font-size:13px} .v{font-size:13px;font-weight:600} .w{fill:#FFFFFF}</style><text class="t" x="0" y="18">Same questions in, same judges out</text><rect x="0" y="84" width="200" height="52" rx="12" fill="#3E61FF"/><text x="100.0" y="115.0" text-anchor="middle" style="font-size:15px;font-weight:700;fill:#FFFFFF">bench loaders</text><rect x="300" y="34" width="200" height="18" rx="5" fill="#3E61FF"/><text x="400" y="47" text-anchor="middle" style="font-size:12.5px;font-weight:600;fill:#FFFFFF">Membase</text><rect x="300" y="56" width="200" height="18" rx="5" fill="#E3E8FF"/><text x="400" y="69" text-anchor="middle" style="font-size:12.5px;font-weight:600;fill:#2A3FBF">mem0</text><rect x="300" y="78" width="200" height="18" rx="5" fill="#E3E8FF"/><text x="400" y="91" text-anchor="middle" style="font-size:12.5px;font-weight:600;fill:#2A3FBF">Memori</text><rect x="300" y="100" width="200" height="18" rx="5" fill="#E3E8FF"/><text x="400" y="113" text-anchor="middle" style="font-size:12.5px;font-weight:600;fill:#2A3FBF">LangMem</text><rect x="300" y="122" width="200" height="18" rx="5" fill="#E3E8FF"/><text x="400" y="135" text-anchor="middle" style="font-size:12.5px;font-weight:600;fill:#2A3FBF">Zep</text><rect x="300" y="144" width="200" height="18" rx="5" fill="#E3E8FF"/><text x="400" y="157" text-anchor="middle" style="font-size:12.5px;font-weight:600;fill:#2A3FBF">Graphiti</text><rect x="300" y="166" width="200" height="18" rx="5" fill="#E3E8FF"/><text x="400" y="179" text-anchor="middle" style="font-size:12.5px;font-weight:600;fill:#2A3FBF">full context</text><line x1="202" y1="110" x2="294" y2="110" stroke="#8B949E" stroke-width="1.6"/><path d="M294 110 l-8 -4 l0 8 z" fill="#8B949E"/><rect x="600" y="84" width="240" height="52" rx="12" fill="#3E61FF"/><text x="720.0" y="115.0" text-anchor="middle" style="font-size:15px;font-weight:700;fill:#FFFFFF">bench judges</text><line x1="502" y1="110" x2="594" y2="110" stroke="#8B949E" stroke-width="1.6"/><path d="M594 110 l-8 -4 l0 8 z" fill="#8B949E"/></svg>
