<svg xmlns="http://www.w3.org/2000/svg" width="840" height="250" viewBox="0 0 840 250" role="img" aria-label="LongMemEval_S, 100-question sample: accuracy by reader (same memory)"><style>text{font-family:-apple-system, BlinkMacSystemFont, "Segoe UI", Helvetica, Arial, sans-serif;fill:#8B949E} .t{font-size:15px;font-weight:600;fill:#3E61FF} .s{font-size:13px} .v{font-size:13px;font-weight:600} .w{fill:#FFFFFF}</style><text class="t" x="0" y="18">LongMemEval_S, 100-question sample: accuracy by reader (same memory)</text><text class="s" x="0" y="49">gpt-5.4-mini</text><rect x="140" y="34" width="640" height="20" rx="4" fill="#DCE3FF" opacity=".45"/><rect x="140" y="34" width="345.6" height="20" rx="4" fill="#3E61FF"/><text class="v" x="493.6" y="49">77%</text><text class="s" x="0" y="79">gpt-4.1-mini</text><rect x="140" y="64" width="640" height="20" rx="4" fill="#DCE3FF" opacity=".45"/><rect x="140" y="64" width="422.4" height="20" rx="4" fill="#3E61FF"/><text class="v" x="570.4" y="79">83%</text><text class="s" x="0" y="109">gpt-4.1</text><rect x="140" y="94" width="640" height="20" rx="4" fill="#DCE3FF" opacity=".45"/><rect x="140" y="94" width="460.8" height="20" rx="4" fill="#3E61FF"/><text class="v" x="608.8" y="109">86%</text><text class="s" x="0" y="139">gpt-5</text><rect x="140" y="124" width="640" height="20" rx="4" fill="#DCE3FF" opacity=".45"/><rect x="140" y="124" width="473.6" height="20" rx="4" fill="#3E61FF"/><text class="v" x="621.6" y="139">87%</text><text class="s" x="0" y="169">gpt-5-mini</text><rect x="140" y="154" width="640" height="20" rx="4" fill="#DCE3FF" opacity=".45"/><rect x="140" y="154" width="473.6" height="20" rx="4" fill="#3E61FF"/><text class="v" x="621.6" y="169">87%</text><text class="s" x="0" y="199">gpt-5.4</text><rect x="140" y="184" width="640" height="20" rx="4" fill="#DCE3FF" opacity=".45"/><rect x="140" y="184" width="499.2" height="20" rx="4" fill="#3E61FF"/><text class="v" x="647.2" y="199">89%</text><text class="s" x="0" y="229">gpt-5.5</text><rect x="140" y="214" width="640" height="20" rx="4" fill="#DCE3FF" opacity=".45"/><rect x="140" y="214" width="588.8" height="20" rx="4" fill="#3E61FF"/><text class="v" x="736.8" y="229">96%</text></svg>
